<svg xmlns="http://www.w3.org/2000/svg" width="80" height="80"><rect width="100%" height="100%" fill="#121212"/><path fill="none" stroke="#00f59f" stroke-width=".5" d="M-20.133 4.568C-13.178 4.932-6.452 7.376 0 10s13.036 5.072 20 5c6.967-.072 13.56-2.341 20-5s13.033-4.928 20-5c6.964-.072 13.548 2.376 20 5s13.178 5.068 20.133 5.432"/><path fill="none" stroke="#f2f2f2" stroke-width=".5" d="M-20.133 24.568C-13.178 24.932-6.452 27.376 0 30s13.036 5.072 20 5c6.967-.072 13.56-2.341 20-5s13.033-4.928 20-5c6.964-.072 13.548 2.376 20 5s13.178 5.068 20.133 5.432"/><path fill="none" stroke="#e4e2e2" stroke-width=".5" d="M-20.133 44.568C-13.178 44.932-6.452 47.376 0 50s13.036 5.072 20 5c6.967-.072 13.56-2.341 20-5s13.033-4.928 20-5c6.964-.072 13.548 2.376 20 5s13.178 5.068 20.133 5.432"/><path fill="none" stroke="#00f59f" stroke-width=".5" d="M-20.133 64.568C-13.178 64.932-6.452 67.376 0 70s13.036 5.072 20 5c6.967-.072 13.56-2.341 20-5s13.033-4.928 20-5c6.964-.072 13.548 2.376 20 5s13.178 5.068 20.133 5.432"/></svg>